<?xml version="1.0" encoding="UTF-8" standalone="no"?><!DOCTYPE svg PUBLIC "-//W3C//DTD SVG 1.1//EN" "http://www.w3.org/Graphics/SVG/1.1/DTD/svg11.dtd"><svg width="100%" height="100%" viewBox="0 0 471 248" version="1.1" xmlns="http://www.w3.org/2000/svg" xmlns:xlink="http://www.w3.org/1999/xlink" xml:space="preserve" xmlns:serif="http://www.serif.com/" style="fill-rule:evenodd;clip-rule:evenodd;stroke-linejoin:round;stroke-miterlimit:2;"><g><clipPath id="_clip1"><path d="M350.469,78.208l103.19,-72.924c9.031,-7.115 15.888,-5.498 15.888,7.6l0,222.33c0,14.714 -8.529,13.097 -15.888,7.6l-103.19,-72.925l-0,-91.681Zm-349.207,-64.678l0,165.576c0.167,37.513 31.776,67.75 70.577,67.588l250.031,0c7.024,0 12.711,-5.497 12.878,-12.289l-0,-165.737c-0.167,-37.513 -31.777,-67.75 -70.577,-67.588l-250.031,-0c-7.024,0.162 -12.711,5.498 -12.878,12.45Z"/></clipPath><g clip-path="url(#_clip1)"><rect x="-18.473" y="-18" width="507.922" height="283.774" style="fill:#4a8cff;fill-rule:nonzero;"/></g></g><text x="28.865px" y="191.828px" style="font-family:'AvenirNext-DemiBold', 'Avenir Next', sans-serif;font-weight:600;font-size:188.959px;fill:#fff;">C<tspan x="162.549px " y="191.828px ">C</tspan></text></svg>